<?xml version="1.0" encoding="UTF-8"?><svg id="Layer_1" xmlns="http://www.w3.org/2000/svg" viewBox="0 0 475 235"><defs><style>.cls-1{fill:#fff;}</style></defs><g id="whr-logo"><g><g><path class="cls-1" d="M234.51,4.11H5.63c-2.26-.02-4.12,1.8-4.13,4.07,0,.57,.11,1.14,.34,1.66L63.43,156.93c.65,1.54,2.15,2.54,3.82,2.55,1.66,0,3.16-1.01,3.8-2.55L120.03,40.02l48.98,116.91c.63,1.54,2.13,2.55,3.8,2.55,1.67-.01,3.17-1.01,3.82-2.55L238.22,9.91c.94-2.06,.04-4.49-2.02-5.44-.55-.23-1.11-.36-1.69-.36Z"/><path class="cls-1" d="M472.36,152.45l-55.73-57.44c21.33-4.74,36.62-23.51,36.93-45.36,0-25.78-21.7-46.74-48.39-46.74-2.27,.01-4.11,1.85-4.13,4.13V155.32c-.03,2.28,1.8,4.15,4.08,4.18h64.24c1.66,0,3.16-1.01,3.8-2.55,.67-1.52,.36-3.3-.8-4.49Z"/><path class="cls-1" d="M268.89,96.36h85.63c2.28,0,4.13,1.85,4.13,4.13v54.81c0,2.28-1.85,4.13-4.13,4.13h-85.63c-2.28,0-4.13-1.85-4.13-4.13v-54.81c.01-2.28,1.86-4.13,4.13-4.13Z"/><path class="cls-1" d="M268.89,4.16h85.63c2.28,0,4.13,1.85,4.13,4.13V63.1c0,2.28-1.85,4.13-4.13,4.13h-85.63c-2.28,0-4.13-1.85-4.13-4.13V8.29c.01-2.29,1.86-4.13,4.13-4.13Z"/></g><path class="cls-1" d="M472.81,225.12v-4.66c-.87,.49-1.85,.74-2.85,.74-1.3,0-1.88-.66-1.88-1.99v-8.79h4.81v-5.09h-4.81v-5.09h-5.81v5.09h-2.55v5.09h2.55v9.7c0,4.74,2.55,6.16,5.96,6.16,1.61,.05,3.2-.37,4.58-1.2m-15.89-13.92v-6.09c-2.97-.23-5.69,1.65-6.52,4.51v-4.13h-5.81v20.38h5.81v-7.64c0-4.89,2.37-7.21,6.21-7.21l.31,.18Zm-21.5,4.66c.18,2.89-2.01,5.39-4.9,5.57-.14,.01-.28,.01-.42,.01-3.01-.04-5.42-2.51-5.38-5.52v-.13h0c-.18-2.89,2.01-5.38,4.91-5.57,.13-.01,.26-.01,.39-.01,3.01,.03,5.43,2.49,5.4,5.5,.01,.05,.01,.1,0,.15Zm5.73,0h0c0-6.12-4.97-11.08-11.09-11.07-6.11,0-11.07,4.96-11.07,11.07h0c.02,5.87,4.8,10.6,10.66,10.58,.12,0,.24,0,.36-.01,5.93,.21,10.91-4.43,11.12-10.36,0-.1,.01-.19,.01-.29m-31.24,0c.56,2.76-1.22,5.45-3.98,6.01s-5.45-1.22-6.01-3.98c-.14-.67-.14-1.36,0-2.03h0c-.56-2.76,1.22-5.45,3.98-6.01s5.45,1.22,6.01,3.98c.14,.68,.14,1.37,0,2.03Zm5.81,0h0c0-6.85-4.56-10.6-9.32-10.6-2.55-.03-4.95,1.23-6.39,3.34v-2.95h-5.81v26.54h5.88v-8.79c1.52,1.98,3.9,3.11,6.39,3.06,4.84,0,9.32-3.74,9.32-10.57m-31.48-1.66h-8.76c.12-2.38,2.05-4.28,4.43-4.36,2.39,.05,4.31,1.98,4.33,4.36m5.66,2.19h0c0-5.81-3.13-11.13-9.98-11.13-5.63-.01-10.19,4.55-10.2,10.18,0,.17,0,.33,.01,.5h0c.12,5.96,5.05,10.7,11.01,10.58,3.11-.06,6.04-1.46,8.04-3.83l-3.31-2.93c-1.3,1.35-3.09,2.11-4.97,2.09-2.48,.2-4.7-1.54-5.09-4h14.42v-1.45m-28.64-7.88c0,2.24-1.63,3.77-4.51,3.77h-5.96v-7.64h5.99c2.85,0,4.61,1.3,4.61,3.82l-.13,.05Zm6.78,17.53l-6.55-9.55c3.56-1.15,5.91-4.54,5.73-8.28h0c0-5.5-3.77-8.84-10.19-8.84h-12.22v26.74h5.88v-8.56h4.64l5.73,8.56,6.98-.07Zm-39.28-6.22h0c0-3.74-3.34-5.09-6.19-6.09-2.22-.76-4.18-1.3-4.18-2.55h0c0-.79,.74-1.4,2.14-1.4,1.98,.17,3.89,.82,5.55,1.91l2.22-4.02c-2.27-1.5-4.92-2.32-7.64-2.37-4.13,0-7.49,2.34-7.49,6.5h0c0,3.97,3.23,5.32,6.11,6.16,2.24,.69,4.23,1.1,4.23,2.37h0c0,.92-.76,1.53-2.55,1.53-2.36-.17-4.61-1.06-6.44-2.55l-2.55,3.82c2.51,1.97,5.6,3.06,8.79,3.08,4.43,0,7.85-2.06,7.85-6.6m-18.8,.01h0c0-3.74-3.34-5.09-6.19-6.09-2.22-.76-4.18-1.3-4.18-2.55h0c0-.79,.74-1.4,2.14-1.4,1.98,.17,3.89,.82,5.55,1.91l2.22-4.02c-2.27-1.5-4.92-2.32-7.64-2.37-4.13,0-7.49,2.34-7.49,6.5h0c0,3.97,3.23,5.32,6.11,6.16,2.24,.69,4.23,1.1,4.23,2.37h0c0,.92-.76,1.53-2.55,1.53-2.36-.17-4.61-1.06-6.44-2.55l-2.55,3.82c2.51,1.97,5.6,3.06,8.79,3.08,4.43,0,7.85-2.06,7.85-6.6m-24.99-5.62h-8.76c.12-2.38,2.05-4.28,4.43-4.36,2.38,.04,4.3,1.97,4.33,4.36m5.66,2.19h0c0-5.81-3.13-11.13-9.98-11.13-5.63-.01-10.19,4.55-10.2,10.18,0,.17,0,.33,.01,.5h0c.12,5.96,5.05,10.7,11.01,10.58,3.11-.06,6.04-1.46,8.04-3.83l-3.31-2.93c-1.3,1.35-3.09,2.11-4.97,2.09-2.48,.2-4.7-1.54-5.09-4h14.72v-1.45m-24.15,9.64v-13.24c0-4.71-2.55-7.64-6.95-7.64-2.42,.03-4.68,1.26-6.01,3.29v-2.9h-5.81v20.38h5.81v-11.41c0-2.75,1.43-4.18,3.64-4.18s3.52,1.43,3.52,4.18v11.41l5.8,.11Zm-24.22-20.38h-5.81v20.38h5.78l.03-20.38Zm.15-7.41h-6.11v5.09h6.11v-5.09Zm-15.46,18.01c.59,2.75-1.15,5.46-3.91,6.05-2.75,.59-5.46-1.15-6.05-3.91-.15-.71-.15-1.44,0-2.15h0c-.59-2.75,1.15-5.46,3.91-6.05,2.75-.59,5.46,1.15,6.05,3.91,.15,.71,.15,1.44,0,2.15Zm5.8,0h0c0-6.85-4.53-10.6-9.32-10.6-2.55-.02-4.93,1.23-6.37,3.34v-2.95h-5.91v26.52h5.81v-8.79c1.52,1.97,3.88,3.11,6.37,3.06,4.86,0,9.32-3.74,9.32-10.57m-30.82-.01c.56,2.76-1.22,5.45-3.98,6.01s-5.45-1.22-6.01-3.98c-.14-.67-.14-1.36,0-2.03h0c-.56-2.76,1.22-5.45,3.98-6.01s5.45,1.22,6.01,3.98c.14,.67,.14,1.36,0,2.03Zm5.81,0h0c0-6.85-4.56-10.6-9.32-10.6-2.55-.03-4.95,1.23-6.39,3.34v-2.95h-5.73v26.52h5.81v-8.79c1.52,1.98,3.9,3.11,6.39,3.06,4.84,0,9.32-3.74,9.32-10.57m-32.02,2.97c0,2.09-1.83,3.59-4.56,3.59-1.86,0-3.16-.92-3.16-2.55h0c0-1.83,1.53-2.83,4-2.83,1.28-.01,2.55,.25,3.72,.76v1.03Zm5.4,7.21v-11.87c0-5.55-2.8-8.84-9.14-8.84-2.74-.06-5.46,.51-7.95,1.66l1.45,4.43c1.8-.73,3.72-1.11,5.65-1.12,2.9,0,4.41,1.35,4.41,3.74v.36c-1.63-.59-3.36-.87-5.09-.84-4.84,0-8.25,2.06-8.25,6.52h0c.02,3.5,2.88,6.32,6.38,6.3,.22,0,.43-.01,.65-.04,2.34,.12,4.61-.81,6.19-2.55v2.22l5.7,.03Zm-22.67,0v-26.74h-5.86v10.6h-10.85v-10.6h-5.88v26.74h5.88v-10.72h10.85v10.72h5.86Zm-45.62-10.19c.59,2.75-1.15,5.46-3.91,6.05s-5.46-1.15-6.05-3.91c-.15-.71-.15-1.44,0-2.15h0c-.59-2.75,1.15-5.46,3.91-6.05,2.75-.59,5.46,1.15,6.05,3.91,.15,.71,.15,1.44,0,2.15Zm5.73,10.19v-27.89h-5.78v10.19c-1.52-1.96-3.88-3.1-6.37-3.06-4.86,0-9.32,3.74-9.32,10.6h0c0,6.83,4.53,10.57,9.32,10.57,2.55,.05,4.95-1.2,6.37-3.31v2.93l5.78-.03Zm-25.29-27.89h-5.78v27.89h5.81l-.03-27.89Zm-10.47,13.12v-6.09c-2.97-.23-5.69,1.65-6.52,4.51v-4.13h-5.78v20.38h5.81v-7.64c0-4.89,2.37-7.21,6.21-7.21l.28,.18Zm-21.39,4.66c.18,2.89-2.01,5.39-4.9,5.57-.14,.01-.28,.01-.42,.01-3.01-.04-5.42-2.51-5.38-5.52v-.13h0c-.18-2.89,2.01-5.38,4.91-5.57,.13-.01,.26-.01,.39-.01,3.01,.03,5.43,2.49,5.4,5.5v.15Zm5.73,0h0c0-6.12-4.96-11.08-11.08-11.08s-11.08,4.96-11.08,11.08h0c.02,5.87,4.8,10.6,10.66,10.58,.12,0,.24,0,.36-.01,5.93,.21,10.91-4.43,11.12-10.36,0-.1,.01-.19,.01-.29m-21.67-16.56h-6.21l-5.55,18.11-5.99-18.19h-5.09l-6.02,18.19-5.53-18.11H4.7l9.14,26.95h5.09l6.04-17.5,6.04,17.5h5.09l9.26-26.95Z"/></g></g></svg>