<?xml version="1.0" encoding="UTF-8"?>
<svg id="Layer_1" data-name="Layer 1" xmlns="http://www.w3.org/2000/svg" viewBox="0 0 612 612">
  <defs>
    <style>
      .cls-1 {
        fill: #93378e;
      }

      .cls-2 {
        fill: #fff;
      }
    </style>
  </defs>
  <rect class="cls-1" width="612" height="612"/>
  <g id="whr-logo">
    <g>
      <g>
        <path class="cls-2" d="M304.06,218.02H126.44c-1.76-.01-3.19,1.4-3.2,3.16,0,.44.09.88.26,1.29l47.8,114.15c.5,1.19,1.67,1.97,2.96,1.98,1.29,0,2.45-.79,2.95-1.98l37.99-90.74,38.03,90.73c.49,1.2,1.66,1.98,2.95,1.98,1.3,0,2.46-.79,2.96-1.98l47.8-114.08c.73-1.59.04-3.48-1.55-4.22-.42-.18-.87-.28-1.32-.28Z"/>
        <path class="cls-2" d="M488.64,333.13l-43.25-44.58c16.55-3.68,28.42-18.24,28.66-35.2,0-20.01-16.84-36.27-37.55-36.27-1.77,0-3.21,1.41-3.24,3.18v115.1c-.02,1.77,1.39,3.21,3.16,3.24,0,0,0,0,0,0h49.85c1.29,0,2.45-.78,2.95-1.97.53-1.18.3-2.56-.59-3.49Z"/>
        <path class="cls-2" d="M330.74,289.6h66.45c1.77,0,3.21,1.43,3.21,3.21h0v42.53c0,1.77-1.43,3.21-3.21,3.21h-66.45c-1.77,0-3.21-1.43-3.21-3.21h0v-42.53c0-1.77,1.44-3.2,3.21-3.21Z"/>
        <path class="cls-2" d="M330.74,218.05h66.45c1.77,0,3.21,1.43,3.21,3.21h0v42.53c0,1.77-1.43,3.21-3.21,3.21h-66.45c-1.77,0-3.21-1.43-3.21-3.21h0v-42.53c0-1.77,1.44-3.2,3.21-3.21Z"/>
      </g>
      <path class="cls-2" d="M488.99,389.53v-3.62c-.68.38-1.44.58-2.21.57-1.01,0-1.46-.51-1.46-1.55v-6.82h3.73v-3.95h-3.73v-3.95h-4.51v3.95h-1.98v3.95h1.98v7.53c0,3.68,1.98,4.78,4.66,4.78,1.25.04,2.48-.29,3.55-.93M476.69,378.69v-4.73c-2.3-.18-4.42,1.28-5.06,3.5v-3.21h-4.51v15.82h4.51v-5.93c0-3.79,1.84-5.6,4.82-5.6l.24.14ZM460.01,382.3c.14,2.24-1.56,4.18-3.8,4.32h-.33c-2.34-.03-4.2-1.95-4.18-4.28h0v-.1h0c-.14-2.25,1.56-4.18,3.81-4.32,0,0,0,0,0,0h.26c2.34.02,4.21,1.93,4.19,4.27h0s.02.08.02.12h.03ZM464.45,382.3h0c0-4.75-3.85-8.6-8.6-8.6s-8.6,3.85-8.6,8.6h0c.02,4.55,3.72,8.23,8.27,8.21h.24c4.6.17,8.47-3.43,8.64-8.04,0,0,0-.02,0-.03v-.23M440.16,382.22c.39,2.15-1.04,4.21-3.2,4.6-2.09.38-4.11-.97-4.56-3.04-.1-.51-.1-1.04,0-1.55h0c-.47-2.13.88-4.25,3.01-4.72,2.13-.47,4.25.88,4.72,3.01.01.05.02.1.03.15.11.52.11,1.06,0,1.58v-.02ZM444.67,382.22h0c0-5.32-3.54-8.23-7.23-8.23-1.98-.02-3.84.95-4.96,2.59v-2.29h-4.51v20.6h4.56v-6.82c1.18,1.53,3.02,2.42,4.96,2.37,3.76,0,7.23-2.9,7.23-8.2M420.3,380.96h-6.8c.1-1.85,1.59-3.32,3.44-3.38,1.85.03,3.34,1.53,3.36,3.38M424.73,382.68h0c0-4.51-2.43-8.64-7.76-8.64-4.37,0-7.91,3.53-7.92,7.9h0v.39h0c.12,4.63,3.96,8.28,8.59,8.17,2.37-.06,4.61-1.12,6.15-2.93l-2.57-2.27c-1.01,1.06-2.42,1.64-3.88,1.62-1.93.16-3.65-1.2-3.95-3.1h11.19v-1.13M402.36,376.58c0,1.74-1.26,2.93-3.5,2.93h-4.66v-5.93h4.66c2.21,0,3.58,1.01,3.58,2.96l-.08.04ZM407.66,390.21l-5.08-7.41c2.76-.89,4.59-3.52,4.45-6.43h0c0-4.27-2.93-6.86-7.91-6.86h-9.46v20.7h4.56v-6.64h3.6l4.45,6.64h5.39ZM377.17,385.38h0c0-2.9-2.59-3.95-4.8-4.73-1.72-.59-3.24-1.01-3.24-1.98h0c0-.61.57-1.09,1.66-1.09,1.54.13,3.02.64,4.31,1.48l1.72-3.1c-1.76-1.16-3.82-1.8-5.93-1.84-3.21,0-5.81,1.82-5.81,5.04h0c0,3.1,2.51,4.13,4.74,4.78,1.74.54,3.28.85,3.28,1.84h0c0,.71-.59,1.19-1.98,1.19-1.83-.13-3.57-.82-5-1.98l-1.92,2.92c1.95,1.53,4.35,2.37,6.82,2.39,3.44,0,6.09-1.6,6.09-5.12M362.52,385.19h0c0-2.9-2.59-3.95-4.8-4.73-1.72-.59-3.24-1.01-3.24-1.98h0c0-.61.57-1.09,1.66-1.09,1.54.13,3.02.64,4.31,1.48l1.72-3.1c-1.77-1.18-3.84-1.82-5.96-1.86-3.21,0-5.81,1.82-5.81,5.04h0c0,3.1,2.51,4.13,4.74,4.78,1.74.54,3.28.85,3.28,1.84h0c0,.71-.59,1.19-1.98,1.19-1.83-.13-3.57-.82-5-1.98l-1.99,2.98c1.95,1.53,4.35,2.37,6.82,2.39,3.44,0,6.09-1.6,6.09-5.12M342.96,380.67h-6.78c.1-1.85,1.59-3.32,3.44-3.38,1.85.03,3.34,1.53,3.36,3.38M347.37,382.37h0c0-4.51-2.43-8.64-7.76-8.64-4.37,0-7.9,3.55-7.9,7.92,0,0,0,.02,0,.02v.39h0c.09,4.63,3.92,8.3,8.55,8.21,2.41-.05,4.68-1.13,6.24-2.97l-2.57-2.27c-1.01,1.06-2.42,1.64-3.88,1.62-1.93.16-3.65-1.2-3.95-3.1h11.42v-1.13M328.78,389.9v-10.31c0-3.66-1.98-5.93-5.39-5.93-1.88.03-3.62.98-4.66,2.55v-2.25h-4.51v15.82h4.51v-8.88c0-2.13,1.11-3.24,2.82-3.24s2.73,1.11,2.73,3.24v8.85l4.49.15ZM309.98,374.08h-4.51v15.82h4.49l.02-15.82ZM310.1,368.33h-4.74v3.95h4.74v-3.95ZM298.1,382.3c.46,2.14-.91,4.25-3.05,4.71-2.14.46-4.25-.91-4.71-3.05h0c-.12-.55-.12-1.12,0-1.67h0c-.46-2.14.91-4.25,3.05-4.71,2.14-.46,4.25.91,4.71,3.05.12.54.13,1.1.03,1.64l-.03.03ZM302.6,382.3h0c0-5.32-3.52-8.23-7.23-8.23-1.98-.02-3.84.96-4.94,2.6v-2.33h-4.59v20.58h4.51v-6.81c1.18,1.53,3.01,2.41,4.94,2.37,3.77,0,7.23-2.9,7.23-8.2M278.61,382.29c.39,2.15-1.04,4.21-3.2,4.6-2.09.38-4.11-.97-4.56-3.04-.1-.51-.1-1.04,0-1.55h0c-.39-2.15,1.04-4.21,3.2-4.6,2.09-.38,4.11.97,4.56,3.04.11.5.12,1.03.03,1.54l-.03.02ZM283.12,382.29h0c0-5.32-3.54-8.23-7.23-8.23-1.98-.02-3.85.96-4.96,2.6v-2.33h-4.45v20.58h4.51v-6.8c1.18,1.53,3.02,2.42,4.96,2.37,3.76,0,7.23-2.9,7.23-8.2M258.35,384.61c0,1.62-1.42,2.79-3.54,2.79-1.44,0-2.45-.71-2.45-1.98h0c0-1.42,1.19-2.2,3.1-2.2.99,0,1.98.19,2.89.59v.8ZM262.54,390.21v-9.24c0-4.31-2.17-6.86-7.09-6.86-2.13-.05-4.24.39-6.17,1.29l1.13,3.44c1.39-.57,2.88-.86,4.38-.87,2.25,0,3.42,1.05,3.42,2.9v.28c-1.27-.46-2.6-.68-3.95-.65-3.76,0-6.4,1.6-6.4,5.06h0c.02,2.72,2.23,4.91,4.95,4.89h0c.17.01.34.01.5,0,1.82.09,3.58-.63,4.8-1.98v1.72l4.42.02ZM244.94,390.21v-20.78h-4.55v8.23h-8.4v-8.23h-4.56v20.78h4.56v-8.35h8.42v8.35h4.53ZM209.54,382.3c.46,2.14-.91,4.25-3.05,4.71-2.14.46-4.25-.91-4.71-3.05-.12-.55-.12-1.12,0-1.67h0c-.46-2.14.91-4.25,3.05-4.71,2.14-.46,4.25.91,4.71,3.05.12.54.12,1.1.02,1.64l-.02.03ZM214,390.21v-21.67h-4.49v7.91c-1.18-1.52-3.01-2.4-4.94-2.37-3.77,0-7.23,2.9-7.23,8.23h0c0,5.3,3.52,8.2,7.23,8.2,1.98.04,3.84-.93,4.94-2.57v2.28h4.49ZM194.38,368.54h-4.49v21.67h4.51l-.02-21.67ZM186.25,378.72v-4.73c-2.3-.18-4.42,1.28-5.06,3.5v-3.21h-4.49v15.82h4.51v-5.93c0-3.79,1.84-5.6,4.82-5.6l.22.14ZM169.65,382.33c.14,2.24-1.56,4.18-3.8,4.32h-.32c-2.34-.03-4.2-1.95-4.18-4.28,0,0,0,0,0,0v-.1h0c-.14-2.25,1.56-4.18,3.81-4.32h0s.3,0,.3,0c2.34.02,4.21,1.93,4.19,4.27,0,0,0,0,0,0v.12h0ZM174.1,382.33h0c0-4.75-3.85-8.6-8.6-8.6s-8.6,3.85-8.6,8.6h0c.02,4.55,3.72,8.23,8.27,8.21h.28c4.6.15,8.45-3.45,8.61-8.05v-.23M157.27,369.42h-4.82l-4.31,14.05-4.66-14.12h-3.94l-4.66,14.12-4.28-14.05h-4.89l7.09,20.91h3.95l4.66-13.58,4.66,13.58h4.01l7.19-20.91Z"/>
    </g>
  </g>
</svg>